<svg data-logo="logo" xmlns="http://www.w3.org/2000/svg" viewBox="0 0 226 43">
        <g style="opacity: 1;" id="logogram" transform="translate(0, 1) rotate(0)"><path d="M13.1469 0.69989L23.4811 9.52876C24.0946 10.0529 24.4483 10.8221 24.4483 11.6322V18.2861L14.1141 9.45723C13.5006 8.93308 13.1469 8.16389 13.1469 7.35375V0.69989Z" fill="#7B19D8"></path><path d="M13.1469 40.6999L23.4811 31.871C24.0946 31.3469 24.4483 30.5777 24.4483 29.7675V23.1137L14.1141 31.9426C13.5006 32.4667 13.1469 33.2359 13.1469 34.046V40.6999Z" fill="#7B19D8"></path><path d="M0.818115 10.0102L11.0117 18.6704C11.5059 19.0903 12.1318 19.3206 12.7785 19.3206H20.9992L10.8306 10.6624C10.3361 10.2413 9.70929 10.0102 9.06158 10.0102H0.818115Z" fill="#7B19D8"></path><path d="M0.818115 31.3895L10.949 22.7343C11.4441 22.3114 12.0723 22.0792 12.7216 22.0792H21.0236L10.8301 30.7393C10.3358 31.1592 9.70997 31.3895 9.06329 31.3895H0.818115Z" fill="#7B19D8"></path><path d="M38.4893 0.69989L28.1552 9.52876C27.5417 10.0529 27.188 10.8221 27.188 11.6322V18.2861L37.5222 9.45723C38.1357 8.93308 38.4893 8.16389 38.4893 7.35375V0.69989Z" fill="#7B19D8"></path><path d="M38.4893 40.6999L28.1552 31.871C27.5417 31.3469 27.188 30.5777 27.188 29.7675V23.1137L37.5222 31.9426C38.1357 32.4667 38.4893 33.2359 38.4893 34.046V40.6999Z" fill="#7B19D8"></path><path d="M50.8181 10.0102L40.6245 18.6704C40.1303 19.0903 39.5045 19.3206 38.8578 19.3206H30.6371L40.8056 10.6624C41.3002 10.2413 41.9269 10.0102 42.5747 10.0102H50.8181Z" fill="#7B19D8"></path><path d="M50.8181 31.3895L40.6872 22.7343C40.1921 22.3114 39.564 22.0792 38.9147 22.0792H30.6126L40.8062 30.7393C41.3004 31.1592 41.9263 31.3895 42.5729 31.3895H50.8181Z" fill="#7B19D8"></path></g>
        <g style="opacity: 1;" id="logotype" transform="translate(57, 8)"><path fill="#24062d" d="M18.64 26.34L21.12 26.34L18.57 18.77L11.64 18.77L8.94 26.34L11.57 26.34L11.57 27L6.21 27L6.21 26.34L7.86 26.34L16.78 2.29L19.65 2.29L28.47 26.34L30.08 26.34L30.08 27L18.64 27L18.64 26.34ZM18.29 18.00L15.24 8.83L11.95 18.00L18.29 18.00ZM35.79 7.92Q33.93 7.92 33.14 6.98Q32.36 6.03 32.36 4.63Q32.36 3.23 33.21 2.32Q34.07 1.41 35.82 1.41Q37.57 1.41 38.48 2.24Q39.39 3.06 39.39 4.58Q39.39 6.10 38.52 7.01Q37.64 7.92 35.79 7.92ZM30.50 10.97L30.50 10.34L39.08 10.34L39.08 26.37L41.04 26.37L41.04 27L30.64 27L30.64 26.37L32.57 26.37L32.57 10.97L30.50 10.97ZM47.55 3.16L47.55 2.50L58.92 2.50L58.92 3.16L57.00 3.16L57.00 18.28Q57.00 23.01 54.86 25.16Q52.73 27.32 48.46 27.32L48.46 27.32Q45.62 27.32 43.96 26.23Q42.30 25.14 42.30 23.18L42.30 23.18Q42.30 21.68 43.14 20.82Q43.98 19.96 45.43 19.96Q46.88 19.96 47.60 20.70Q48.32 21.43 48.32 22.47Q48.32 23.50 47.93 24.55L47.93 24.55L46.57 24.55Q46.25 25.07 46.25 25.55Q46.25 26.02 46.72 26.35Q47.20 26.68 47.97 26.68L47.97 26.68Q49.37 26.68 49.77 25.58Q50.17 24.48 50.17 20.80L50.17 20.80L50.17 3.16L47.55 3.16ZM70.65 20.11L70.65 20.11L70.65 17.13Q70.65 13.73 70.28 12.18Q69.91 10.62 68.58 10.62L68.58 10.62Q67.81 10.62 67.34 11.06Q66.87 11.49 66.66 12.51L66.66 12.51Q66.34 14.08 66.34 17.30L66.34 17.30L66.34 20.04Q66.34 23.85 66.57 24.62Q66.80 25.39 67.04 25.88L67.04 25.88Q67.42 26.72 68.55 26.72L68.55 26.72Q69.91 26.72 70.33 25.14L70.33 25.14Q70.65 24.02 70.65 20.11ZM68.48 27.35Q64.10 27.35 61.86 25.11Q59.62 22.87 59.62 18.69Q59.62 14.50 62.02 12.25Q64.42 9.99 68.75 9.99Q73.09 9.99 75.23 12.07Q77.37 14.15 77.37 18.42L77.37 18.42Q77.37 27.35 68.48 27.35L68.48 27.35ZM98.82 26.37L98.82 27L90.84 27L90.46 24.45Q89.90 25.84 88.79 26.60Q87.69 27.35 85.52 27.35L85.52 27.35Q80.09 27.35 80.09 21.50L80.09 21.50L80.09 10.97L78.14 10.97L78.14 10.34L86.61 10.34L86.61 22.34Q86.61 24.45 86.90 25.11Q87.20 25.77 88.09 25.77Q88.98 25.77 89.69 24.69Q90.39 23.61 90.39 21.68L90.39 21.68L90.39 10.97L88.78 10.97L88.78 10.34L96.90 10.34L96.90 26.37L98.82 26.37ZM111.21 11.32L111.21 11.32Q109.92 11.32 108.94 13.00Q107.95 14.68 107.95 16.99L107.95 16.99L107.95 26.37L110.44 26.37L110.44 27L99.52 27L99.52 26.37L101.45 26.37L101.45 10.97L99.52 10.97L99.52 10.34L107.95 10.34L107.95 13.70Q108.41 11.91 109.70 10.95Q111 9.99 112.65 9.99Q114.29 9.99 115.32 10.92Q116.36 11.84 116.36 13.54Q116.36 15.24 115.59 16.15Q114.81 17.06 113.22 17.06Q111.63 17.06 110.88 16.01Q110.13 14.96 110.69 13.10L110.69 13.10L111.95 13.10Q112.82 11.32 111.21 11.32ZM116.92 10.97L116.92 10.34L125.35 10.34L125.35 13.56Q125.91 11.95 127.06 10.97Q128.22 9.99 130.56 9.99L130.56 9.99Q135.99 9.99 135.99 15.83L135.99 15.83L135.99 26.37L137.95 26.37L137.95 27L128.05 27L128.05 26.37L129.48 26.37L129.48 14.99Q129.48 12.89 129.20 12.28Q128.92 11.67 128.19 11.67L128.19 11.67Q127.06 11.67 126.21 13.14Q125.35 14.61 125.35 16.71L125.35 16.71L125.35 26.37L126.86 26.37L126.86 27L116.92 27L116.92 26.37L118.84 26.37L118.84 10.97L116.92 10.97ZM146.81 18.77L146.81 18.77L147.82 18.77L147.82 16.08Q147.82 12.75 147.45 11.62Q147.09 10.48 146.03 10.48L146.03 10.48Q145.41 10.48 144.90 10.81Q144.39 11.14 144.39 11.72Q144.39 12.30 144.60 12.89L144.60 12.89L145.47 12.89Q145.75 13.63 145.75 14.66Q145.75 15.69 144.88 16.45Q144.00 17.20 142.68 17.20L142.68 17.20Q139.67 17.20 139.67 14.29L139.67 14.29Q139.67 9.99 146.98 9.99L146.98 9.99Q151.15 9.99 152.74 11.41Q154.33 12.82 154.33 16.60L154.33 16.60L154.33 23.71Q154.33 25.53 155.34 25.53L155.34 25.53Q156.53 25.53 156.75 21.93L156.75 21.93L157.27 21.96Q157.13 25.04 156.12 26.20Q155.10 27.35 152.79 27.35L152.79 27.35Q148.59 27.35 147.96 24.76L147.96 24.76Q147.50 26.09 146.59 26.72Q145.69 27.35 143.94 27.35L143.94 27.35Q138.75 27.35 138.75 23.11L138.75 23.11Q138.75 20.63 140.73 19.70Q142.71 18.77 146.81 18.77ZM145.41 23.08Q145.41 24.90 145.60 25.43Q145.79 25.95 146.33 25.95Q146.88 25.95 147.35 25.06Q147.82 24.16 147.82 22.59L147.82 22.59L147.82 19.34L147.58 19.34Q145.41 19.34 145.41 22.52L145.41 22.52L145.41 23.08ZM157.48 1.38L157.48 0.75L166.06 0.75L166.06 26.37L168.02 26.37L168.02 27L157.62 27L157.62 26.37L159.55 26.37L159.55 1.38L157.48 1.38Z"></path></g>
        
      </svg>